{
	"asset":{
		"generator":"Khronos glTF Blender I/O v3.5.30",
		"version":"2.0"
	},
	"extensionsUsed":[
		"KHR_materials_specular",
		"KHR_materials_ior"
	],
	"scene":0,
	"scenes":[
		{
			"name":"Scene",
			"nodes":[
				0,
				1,
				2,
				3,
				4,
				5,
				6,
				7
			]
		}
	],
	"nodes":[
		{
			"mesh":0,
			"name":"NeckRingSmall",
			"rotation":[
				0,
				-0.9999794960021973,
				-0.006402361206710339,
				1.6291734539208846e-07
			]
		},
		{
			"mesh":1,
			"name":"HornRingSmall",
			"rotation":[
				0,
				-0.9999794960021973,
				-0.006402361206710339,
				1.6291734539208846e-07
			]
		},
		{
			"mesh":2,
			"name":"HornRingBig",
			"rotation":[
				0,
				-0.9999794960021973,
				-0.006402361206710339,
				1.6291734539208846e-07
			]
		},
		{
			"mesh":3,
			"name":"Rope",
			"rotation":[
				0,
				-0.9999794960021973,
				-0.006402361206710339,
				1.6291734539208846e-07
			]
		},
		{
			"mesh":4,
			"name":"Headring",
			"rotation":[
				0,
				-0.9999794960021973,
				-0.006402361206710339,
				1.6291734539208846e-07
			]
		},
		{
			"mesh":5,
			"name":"NeckRingBig",
			"rotation":[
				0,
				-0.9999794960021973,
				-0.006402361206710339,
				1.6291734539208846e-07
			]
		},
		{
			"mesh":6,
			"name":"mat"
		},
		{
			"mesh":7,
			"name":"BurroHedring",
			"rotation":[
				0,
				-0.9999794960021973,
				-0.006402361206710339,
				1.6291734539208846e-07
			],
			"scale":[
				2.1891372203826904,
				1.6376324892044067,
				2.1890475749969482
			]
		}
	],
	"animations":[
		{
			"channels":[
				{
					"sampler":0,
					"target":{
						"node":0,
						"path":"translation"
					}
				},
				{
					"sampler":1,
					"target":{
						"node":0,
						"path":"rotation"
					}
				},
				{
					"sampler":2,
					"target":{
						"node":0,
						"path":"scale"
					}
				}
			],
			"name":"NeckRingSmall",
			"samplers":[
				{
					"input":28,
					"interpolation":"LINEAR",
					"output":29
				},
				{
					"input":28,
					"interpolation":"LINEAR",
					"output":30
				},
				{
					"input":28,
					"interpolation":"LINEAR",
					"output":31
				}
			]
		},
		{
			"channels":[
				{
					"sampler":0,
					"target":{
						"node":1,
						"path":"translation"
					}
				},
				{
					"sampler":1,
					"target":{
						"node":1,
						"path":"rotation"
					}
				},
				{
					"sampler":2,
					"target":{
						"node":1,
						"path":"scale"
					}
				}
			],
			"name":"HornRingSmall",
			"samplers":[
				{
					"input":28,
					"interpolation":"LINEAR",
					"output":32
				},
				{
					"input":28,
					"interpolation":"LINEAR",
					"output":33
				},
				{
					"input":28,
					"interpolation":"LINEAR",
					"output":34
				}
			]
		},
		{
			"channels":[
				{
					"sampler":0,
					"target":{
						"node":2,
						"path":"translation"
					}
				},
				{
					"sampler":1,
					"target":{
						"node":2,
						"path":"rotation"
					}
				},
				{
					"sampler":2,
					"target":{
						"node":2,
						"path":"scale"
					}
				}
			],
			"name":"HornRingBig",
			"samplers":[
				{
					"input":28,
					"interpolation":"LINEAR",
					"output":35
				},
				{
					"input":28,
					"interpolation":"LINEAR",
					"output":36
				},
				{
					"input":28,
					"interpolation":"LINEAR",
					"output":37
				}
			]
		},
		{
			"channels":[
				{
					"sampler":0,
					"target":{
						"node":3,
						"path":"translation"
					}
				},
				{
					"sampler":1,
					"target":{
						"node":3,
						"path":"rotation"
					}
				},
				{
					"sampler":2,
					"target":{
						"node":3,
						"path":"scale"
					}
				}
			],
			"name":"Rope",
			"samplers":[
				{
					"input":28,
					"interpolation":"LINEAR",
					"output":38
				},
				{
					"input":28,
					"interpolation":"LINEAR",
					"output":39
				},
				{
					"input":28,
					"interpolation":"LINEAR",
					"output":40
				}
			]
		},
		{
			"channels":[
				{
					"sampler":0,
					"target":{
						"node":4,
						"path":"translation"
					}
				},
				{
					"sampler":1,
					"target":{
						"node":4,
						"path":"rotation"
					}
				},
				{
					"sampler":2,
					"target":{
						"node":4,
						"path":"scale"
					}
				}
			],
			"name":"Headring",
			"samplers":[
				{
					"input":28,
					"interpolation":"LINEAR",
					"output":41
				},
				{
					"input":28,
					"interpolation":"LINEAR",
					"output":42
				},
				{
					"input":28,
					"interpolation":"LINEAR",
					"output":43
				}
			]
		},
		{
			"channels":[
				{
					"sampler":0,
					"target":{
						"node":5,
						"path":"translation"
					}
				},
				{
					"sampler":1,
					"target":{
						"node":5,
						"path":"rotation"
					}
				},
				{
					"sampler":2,
					"target":{
						"node":5,
						"path":"scale"
					}
				}
			],
			"name":"NeckRingBig",
			"samplers":[
				{
					"input":28,
					"interpolation":"LINEAR",
					"output":44
				},
				{
					"input":28,
					"interpolation":"LINEAR",
					"output":45
				},
				{
					"input":28,
					"interpolation":"LINEAR",
					"output":46
				}
			]
		},
		{
			"channels":[
				{
					"sampler":0,
					"target":{
						"node":6,
						"path":"translation"
					}
				},
				{
					"sampler":1,
					"target":{
						"node":6,
						"path":"rotation"
					}
				},
				{
					"sampler":2,
					"target":{
						"node":6,
						"path":"scale"
					}
				}
			],
			"name":"mat",
			"samplers":[
				{
					"input":28,
					"interpolation":"LINEAR",
					"output":47
				},
				{
					"input":28,
					"interpolation":"LINEAR",
					"output":48
				},
				{
					"input":28,
					"interpolation":"LINEAR",
					"output":49
				}
			]
		},
		{
			"channels":[
				{
					"sampler":0,
					"target":{
						"node":7,
						"path":"translation"
					}
				},
				{
					"sampler":1,
					"target":{
						"node":7,
						"path":"rotation"
					}
				},
				{
					"sampler":2,
					"target":{
						"node":7,
						"path":"scale"
					}
				}
			],
			"name":"BurroHedring",
			"samplers":[
				{
					"input":28,
					"interpolation":"LINEAR",
					"output":50
				},
				{
					"input":28,
					"interpolation":"LINEAR",
					"output":51
				},
				{
					"input":28,
					"interpolation":"LINEAR",
					"output":52
				}
			]
		}
	],
	"materials":[
		{
			"doubleSided":true,
			"extensions":{
				"KHR_materials_specular":{
					"specularColorFactor":[
						0.3387653532996385,
						0.3387653532996385,
						0.3387653532996385
					]
				},
				"KHR_materials_ior":{
					"ior":1.4500000476837158
				}
			},
			"name":"Material",
			"pbrMetallicRoughness":{
				"baseColorFactor":[
					0.010166997089982033,
					0.24712693691253662,
					0.8000000715255737,
					1
				],
				"metallicFactor":0,
				"roughnessFactor":0.5
			}
		},
		{
			"doubleSided":true,
			"extensions":{
				"KHR_materials_specular":{
					"specularColorFactor":[
						2.126693818841401,
						2.126693818841401,
						2.126693818841401
					]
				},
				"KHR_materials_ior":{
					"ior":1.4500000476837158
				}
			},
			"name":"Material.001",
			"pbrMetallicRoughness":{
				"baseColorFactor":[
					0.22627049684524536,
					0.009501035325229168,
					0.8000000715255737,
					1
				],
				"metallicFactor":0,
				"roughnessFactor":0.4920634925365448
			}
		},
		{
			"doubleSided":true,
			"extensions":{
				"KHR_materials_specular":{
					"specularColorFactor":[
						2.126693818841401,
						2.126693818841401,
						2.126693818841401
					]
				},
				"KHR_materials_ior":{
					"ior":1.4500000476837158
				}
			},
			"name":"Material.004",
			"pbrMetallicRoughness":{
				"baseColorFactor":[
					0.2562336325645447,
					0.8000000715255737,
					0.021252036094665527,
					1
				],
				"metallicFactor":0,
				"roughnessFactor":0.4920634925365448
			}
		},
		{
			"doubleSided":true,
			"extensions":{
				"KHR_materials_specular":{
					"specularColorFactor":[
						0.07528118962214189,
						0.07528118962214189,
						0.07528118962214189
					]
				},
				"KHR_materials_ior":{
					"ior":1.4500000476837158
				}
			},
			"name":"Material.006",
			"pbrMetallicRoughness":{
				"baseColorFactor":[
					0.08001144975423813,
					0.008568533696234226,
					0.0035714542027562857,
					1
				],
				"metallicFactor":0,
				"roughnessFactor":0.920634925365448
			}
		},
		{
			"doubleSided":true,
			"extensions":{
				"KHR_materials_specular":{
					"specularColorFactor":[
						1.2044991752981986,
						1.2044991752981986,
						1.2044991752981986
					]
				},
				"KHR_materials_ior":{
					"ior":1.4500000476837158
				}
			},
			"name":"Material.005",
			"pbrMetallicRoughness":{
				"baseColorFactor":[
					0.4200230836868286,
					0.4200230836868286,
					0.4200230836868286,
					1
				],
				"metallicFactor":0.5873016119003296,
				"roughnessFactor":0.2936508059501648
			}
		},
		{
			"doubleSided":true,
			"name":"Material.008",
			"pbrMetallicRoughness":{
				"baseColorTexture":{
					"index":0
				},
				"metallicFactor":0,
				"roughnessFactor":0.5
			}
		}
	],
	"meshes":[
		{
			"name":"BezierCircle",
			"primitives":[
				{
					"attributes":{
						"POSITION":0,
						"TEXCOORD_0":1,
						"NORMAL":2
					},
					"indices":3,
					"material":0
				}
			]
		},
		{
			"name":"BezierCircle.001",
			"primitives":[
				{
					"attributes":{
						"POSITION":4,
						"TEXCOORD_0":5,
						"NORMAL":6
					},
					"indices":7,
					"material":1
				}
			]
		},
		{
			"name":"BezierCircle.002",
			"primitives":[
				{
					"attributes":{
						"POSITION":8,
						"TEXCOORD_0":9,
						"NORMAL":10
					},
					"indices":7,
					"material":2
				}
			]
		},
		{
			"name":"BezierCurve",
			"primitives":[
				{
					"attributes":{
						"POSITION":11,
						"TEXCOORD_0":12,
						"NORMAL":13
					},
					"indices":14,
					"material":3
				}
			]
		},
		{
			"name":"BezierCircle.003",
			"primitives":[
				{
					"attributes":{
						"POSITION":15,
						"TEXCOORD_0":16,
						"NORMAL":17
					},
					"indices":3,
					"material":4
				}
			]
		},
		{
			"name":"BezierCircle.004",
			"primitives":[
				{
					"attributes":{
						"POSITION":18,
						"TEXCOORD_0":19,
						"NORMAL":20
					},
					"indices":3,
					"material":0
				}
			]
		},
		{
			"name":"Plane",
			"primitives":[
				{
					"attributes":{
						"POSITION":21,
						"TEXCOORD_0":22,
						"NORMAL":23
					},
					"indices":24,
					"material":5
				}
			]
		},
		{
			"name":"BezierCircle.004",
			"primitives":[
				{
					"attributes":{
						"POSITION":25,
						"TEXCOORD_0":26,
						"NORMAL":27
					},
					"indices":3,
					"material":4
				}
			]
		}
	],
	"textures":[
		{
			"sampler":0,
			"source":0
		}
	],
	"images":[
		{
			"bufferView":25,
			"mimeType":"image/png",
			"name":"greenmat"
		}
	],
	"accessors":[
		{
			"bufferView":0,
			"componentType":5126,
			"count":637,
			"max":[
				0.5179337859153748,
				0.8385853171348572,
				0.15616630017757416
			],
			"min":[
				0.3312212824821472,
				0.4222342371940613,
				-0.18061618506908417
			],
			"type":"VEC3"
		},
		{
			"bufferView":1,
			"componentType":5126,
			"count":637,
			"type":"VEC2"
		},
		{
			"bufferView":2,
			"componentType":5126,
			"count":637,
			"type":"VEC3"
		},
		{
			"bufferView":3,
			"componentType":5123,
			"count":3456,
			"type":"SCALAR"
		},
		{
			"bufferView":4,
			"componentType":5126,
			"count":1274,
			"max":[
				0.6383852958679199,
				0.9716701507568359,
				0.17412903904914856
			],
			"min":[
				0.4670979976654053,
				0.8921544551849365,
				-0.19857916235923767
			],
			"type":"VEC3"
		},
		{
			"bufferView":5,
			"componentType":5126,
			"count":1274,
			"type":"VEC2"
		},
		{
			"bufferView":6,
			"componentType":5126,
			"count":1274,
			"type":"VEC3"
		},
		{
			"bufferView":7,
			"componentType":5123,
			"count":6912,
			"type":"SCALAR"
		},
		{
			"bufferView":8,
			"componentType":5126,
			"count":1274,
			"max":[
				0.6277710199356079,
				0.9968576431274414,
				0.16754227876663208
			],
			"min":[
				0.4766436219215393,
				0.9295641183853149,
				-0.19199241697788239
			],
			"type":"VEC3"
		},
		{
			"bufferView":9,
			"componentType":5126,
			"count":1274,
			"type":"VEC2"
		},
		{
			"bufferView":10,
			"componentType":5126,
			"count":1274,
			"type":"VEC3"
		},
		{
			"bufferView":11,
			"componentType":5126,
			"count":1181,
			"max":[
				0.7244030237197876,
				0.7999477386474609,
				0.2391228973865509
			],
			"min":[
				0.11139187216758728,
				0.39524805545806885,
				-0.25593557953834534
			],
			"type":"VEC3"
		},
		{
			"bufferView":12,
			"componentType":5126,
			"count":1181,
			"type":"VEC2"
		},
		{
			"bufferView":13,
			"componentType":5126,
			"count":1181,
			"type":"VEC3"
		},
		{
			"bufferView":14,
			"componentType":5123,
			"count":6396,
			"type":"SCALAR"
		},
		{
			"bufferView":15,
			"componentType":5126,
			"count":637,
			"max":[
				0.7586469650268555,
				0.8757380843162537,
				0.07137307524681091
			],
			"min":[
				0.6721445918083191,
				0.700065553188324,
				-0.0958230048418045
			],
			"type":"VEC3"
		},
		{
			"bufferView":16,
			"componentType":5126,
			"count":637,
			"type":"VEC2"
		},
		{
			"bufferView":17,
			"componentType":5126,
			"count":637,
			"type":"VEC3"
		},
		{
			"bufferView":18,
			"componentType":5126,
			"count":637,
			"max":[
				0.5107192397117615,
				0.8230044841766357,
				0.18612179160118103
			],
			"min":[
				0.29079198837280273,
				0.33258774876594543,
				-0.21057167649269104
			],
			"type":"VEC3"
		},
		{
			"bufferView":19,
			"componentType":5126,
			"count":637,
			"type":"VEC2"
		},
		{
			"bufferView":20,
			"componentType":5126,
			"count":637,
			"type":"VEC3"
		},
		{
			"bufferView":21,
			"componentType":5126,
			"count":1706,
			"max":[
				0.32094526290893555,
				0.6716814041137695,
				0.23789247870445251
			],
			"min":[
				-0.11203192174434662,
				0.2440584897994995,
				-0.23789247870445251
			],
			"type":"VEC3"
		},
		{
			"bufferView":22,
			"componentType":5126,
			"count":1706,
			"type":"VEC2"
		},
		{
			"bufferView":23,
			"componentType":5126,
			"count":1706,
			"type":"VEC3"
		},
		{
			"bufferView":24,
			"componentType":5123,
			"count":9336,
			"type":"SCALAR"
		},
		{
			"bufferView":26,
			"componentType":5126,
			"count":637,
			"max":[
				0.38986581563949585,
				0.476107656955719,
				0.08601006120443344
			],
			"min":[
				0.30494117736816406,
				0.3061748147010803,
				-0.07853195816278458
			],
			"type":"VEC3"
		},
		{
			"bufferView":27,
			"componentType":5126,
			"count":637,
			"type":"VEC2"
		},
		{
			"bufferView":28,
			"componentType":5126,
			"count":637,
			"type":"VEC3"
		},
		{
			"bufferView":29,
			"componentType":5126,
			"count":9,
			"max":[
				0.3333333333333333
			],
			"min":[
				0
			],
			"type":"SCALAR"
		},
		{
			"bufferView":30,
			"componentType":5126,
			"count":9,
			"type":"VEC3"
		},
		{
			"bufferView":31,
			"componentType":5126,
			"count":9,
			"type":"VEC4"
		},
		{
			"bufferView":32,
			"componentType":5126,
			"count":9,
			"type":"VEC3"
		},
		{
			"bufferView":33,
			"componentType":5126,
			"count":9,
			"type":"VEC3"
		},
		{
			"bufferView":34,
			"componentType":5126,
			"count":9,
			"type":"VEC4"
		},
		{
			"bufferView":35,
			"componentType":5126,
			"count":9,
			"type":"VEC3"
		},
		{
			"bufferView":36,
			"componentType":5126,
			"count":9,
			"type":"VEC3"
		},
		{
			"bufferView":37,
			"componentType":5126,
			"count":9,
			"type":"VEC4"
		},
		{
			"bufferView":38,
			"componentType":5126,
			"count":9,
			"type":"VEC3"
		},
		{
			"bufferView":39,
			"componentType":5126,
			"count":9,
			"type":"VEC3"
		},
		{
			"bufferView":40,
			"componentType":5126,
			"count":9,
			"type":"VEC4"
		},
		{
			"bufferView":41,
			"componentType":5126,
			"count":9,
			"type":"VEC3"
		},
		{
			"bufferView":42,
			"componentType":5126,
			"count":9,
			"type":"VEC3"
		},
		{
			"bufferView":43,
			"componentType":5126,
			"count":9,
			"type":"VEC4"
		},
		{
			"bufferView":44,
			"componentType":5126,
			"count":9,
			"type":"VEC3"
		},
		{
			"bufferView":45,
			"componentType":5126,
			"count":9,
			"type":"VEC3"
		},
		{
			"bufferView":46,
			"componentType":5126,
			"count":9,
			"type":"VEC4"
		},
		{
			"bufferView":47,
			"componentType":5126,
			"count":9,
			"type":"VEC3"
		},
		{
			"bufferView":48,
			"componentType":5126,
			"count":9,
			"type":"VEC3"
		},
		{
			"bufferView":49,
			"componentType":5126,
			"count":9,
			"type":"VEC4"
		},
		{
			"bufferView":50,
			"componentType":5126,
			"count":9,
			"type":"VEC3"
		},
		{
			"bufferView":51,
			"componentType":5126,
			"count":9,
			"type":"VEC3"
		},
		{
			"bufferView":52,
			"componentType":5126,
			"count":9,
			"type":"VEC4"
		},
		{
			"bufferView":53,
			"componentType":5126,
			"count":9,
			"type":"VEC3"
		}
	],
	"bufferViews":[
		{
			"buffer":0,
			"byteLength":7644,
			"byteOffset":0,
			"target":34962
		},
		{
			"buffer":0,
			"byteLength":5096,
			"byteOffset":7644,
			"target":34962
		},
		{
			"buffer":0,
			"byteLength":7644,
			"byteOffset":12740,
			"target":34962
		},
		{
			"buffer":0,
			"byteLength":6912,
			"byteOffset":20384,
			"target":34963
		},
		{
			"buffer":0,
			"byteLength":15288,
			"byteOffset":27296,
			"target":34962
		},
		{
			"buffer":0,
			"byteLength":10192,
			"byteOffset":42584,
			"target":34962
		},
		{
			"buffer":0,
			"byteLength":15288,
			"byteOffset":52776,
			"target":34962
		},
		{
			"buffer":0,
			"byteLength":13824,
			"byteOffset":68064,
			"target":34963
		},
		{
			"buffer":0,
			"byteLength":15288,
			"byteOffset":81888,
			"target":34962
		},
		{
			"buffer":0,
			"byteLength":10192,
			"byteOffset":97176,
			"target":34962
		},
		{
			"buffer":0,
			"byteLength":15288,
			"byteOffset":107368,
			"target":34962
		},
		{
			"buffer":0,
			"byteLength":14172,
			"byteOffset":122656,
			"target":34962
		},
		{
			"buffer":0,
			"byteLength":9448,
			"byteOffset":136828,
			"target":34962
		},
		{
			"buffer":0,
			"byteLength":14172,
			"byteOffset":146276,
			"target":34962
		},
		{
			"buffer":0,
			"byteLength":12792,
			"byteOffset":160448,
			"target":34963
		},
		{
			"buffer":0,
			"byteLength":7644,
			"byteOffset":173240,
			"target":34962
		},
		{
			"buffer":0,
			"byteLength":5096,
			"byteOffset":180884,
			"target":34962
		},
		{
			"buffer":0,
			"byteLength":7644,
			"byteOffset":185980,
			"target":34962
		},
		{
			"buffer":0,
			"byteLength":7644,
			"byteOffset":193624,
			"target":34962
		},
		{
			"buffer":0,
			"byteLength":5096,
			"byteOffset":201268,
			"target":34962
		},
		{
			"buffer":0,
			"byteLength":7644,
			"byteOffset":206364,
			"target":34962
		},
		{
			"buffer":0,
			"byteLength":20472,
			"byteOffset":214008,
			"target":34962
		},
		{
			"buffer":0,
			"byteLength":13648,
			"byteOffset":234480,
			"target":34962
		},
		{
			"buffer":0,
			"byteLength":20472,
			"byteOffset":248128,
			"target":34962
		},
		{
			"buffer":0,
			"byteLength":18672,
			"byteOffset":268600,
			"target":34963
		},
		{
			"buffer":0,
			"byteLength":109719,
			"byteOffset":287272
		},
		{
			"buffer":0,
			"byteLength":7644,
			"byteOffset":396992,
			"target":34962
		},
		{
			"buffer":0,
			"byteLength":5096,
			"byteOffset":404636,
			"target":34962
		},
		{
			"buffer":0,
			"byteLength":7644,
			"byteOffset":409732,
			"target":34962
		},
		{
			"buffer":0,
			"byteLength":36,
			"byteOffset":417376
		},
		{
			"buffer":0,
			"byteLength":108,
			"byteOffset":417412
		},
		{
			"buffer":0,
			"byteLength":144,
			"byteOffset":417520
		},
		{
			"buffer":0,
			"byteLength":108,
			"byteOffset":417664
		},
		{
			"buffer":0,
			"byteLength":108,
			"byteOffset":417772
		},
		{
			"buffer":0,
			"byteLength":144,
			"byteOffset":417880
		},
		{
			"buffer":0,
			"byteLength":108,
			"byteOffset":418024
		},
		{
			"buffer":0,
			"byteLength":108,
			"byteOffset":418132
		},
		{
			"buffer":0,
			"byteLength":144,
			"byteOffset":418240
		},
		{
			"buffer":0,
			"byteLength":108,
			"byteOffset":418384
		},
		{
			"buffer":0,
			"byteLength":108,
			"byteOffset":418492
		},
		{
			"buffer":0,
			"byteLength":144,
			"byteOffset":418600
		},
		{
			"buffer":0,
			"byteLength":108,
			"byteOffset":418744
		},
		{
			"buffer":0,
			"byteLength":108,
			"byteOffset":418852
		},
		{
			"buffer":0,
			"byteLength":144,
			"byteOffset":418960
		},
		{
			"buffer":0,
			"byteLength":108,
			"byteOffset":419104
		},
		{
			"buffer":0,
			"byteLength":108,
			"byteOffset":419212
		},
		{
			"buffer":0,
			"byteLength":144,
			"byteOffset":419320
		},
		{
			"buffer":0,
			"byteLength":108,
			"byteOffset":419464
		},
		{
			"buffer":0,
			"byteLength":108,
			"byteOffset":419572
		},
		{
			"buffer":0,
			"byteLength":144,
			"byteOffset":419680
		},
		{
			"buffer":0,
			"byteLength":108,
			"byteOffset":419824
		},
		{
			"buffer":0,
			"byteLength":108,
			"byteOffset":419932
		},
		{
			"buffer":0,
			"byteLength":144,
			"byteOffset":420040
		},
		{
			"buffer":0,
			"byteLength":108,
			"byteOffset":420184
		}
	],
	"samplers":[
		{
			"magFilter":9729,
			"minFilter":9987
		}
	],
	"buffers":[
		{
			"byteLength":420292,
			"uri":"data:application/octet-stream;base64,"
		}
	]
}
