{
	"asset":{
		"generator":"Khronos glTF Blender I/O v3.5.30",
		"version":"2.0"
	},
	"extensionsUsed":[
		"KHR_materials_specular",
		"KHR_materials_ior"
	],
	"scene":0,
	"scenes":[
		{
			"name":"Scene",
			"nodes":[
				0
			]
		}
	],
	"nodes":[
		{
			"mesh":0,
			"name":"Burro"
		}
	],
	"animations":[
		{
			"channels":[
				{
					"sampler":0,
					"target":{
						"node":0,
						"path":"translation"
					}
				},
				{
					"sampler":1,
					"target":{
						"node":0,
						"path":"rotation"
					}
				},
				{
					"sampler":2,
					"target":{
						"node":0,
						"path":"scale"
					}
				}
			],
			"name":"Burro",
			"samplers":[
				{
					"input":8,
					"interpolation":"LINEAR",
					"output":9
				},
				{
					"input":8,
					"interpolation":"LINEAR",
					"output":10
				},
				{
					"input":8,
					"interpolation":"LINEAR",
					"output":11
				}
			]
		}
	],
	"materials":[
		{
			"doubleSided":true,
			"extensions":{
				"KHR_materials_specular":{
					"specularColorFactor":[
						0.22584356886642568,
						0.22584356886642568,
						0.22584356886642568
					]
				},
				"KHR_materials_ior":{
					"ior":1.4500000476837158
				}
			},
			"name":"Burromaterial",
			"pbrMetallicRoughness":{
				"baseColorFactor":[
					0.12669961154460907,
					0.28347888588905334,
					0.8000000715255737,
					1
				],
				"metallicFactor":0,
				"roughnessFactor":0.2222222089767456
			}
		},
		{
			"doubleSided":true,
			"extensions":{
				"KHR_materials_specular":{
					"specularColorFactor":[
						1.580905123408908,
						1.580905123408908,
						1.580905123408908
					]
				},
				"KHR_materials_ior":{
					"ior":1.4500000476837158
				}
			},
			"name":"eye",
			"pbrMetallicRoughness":{
				"baseColorFactor":[
					0.00103139434941113,
					0.00103139434941113,
					0.00103139434941113,
					1
				],
				"metallicFactor":0,
				"roughnessFactor":0.1746031641960144
			}
		}
	],
	"meshes":[
		{
			"name":"Cube.002",
			"primitives":[
				{
					"attributes":{
						"POSITION":0,
						"TEXCOORD_0":1,
						"NORMAL":2
					},
					"indices":3,
					"material":0
				},
				{
					"attributes":{
						"POSITION":4,
						"TEXCOORD_0":5,
						"NORMAL":6
					},
					"indices":7,
					"material":1
				}
			]
		}
	],
	"accessors":[
		{
			"bufferView":0,
			"componentType":5126,
			"count":11963,
			"max":[
				0.7488263249397278,
				1.3832757472991943,
				0.29354482889175415
			],
			"min":[
				-1.0458964109420776,
				-0.6229833960533142,
				-0.29354482889175415
			],
			"type":"VEC3"
		},
		{
			"bufferView":1,
			"componentType":5126,
			"count":11963,
			"type":"VEC2"
		},
		{
			"bufferView":2,
			"componentType":5126,
			"count":11963,
			"type":"VEC3"
		},
		{
			"bufferView":3,
			"componentType":5123,
			"count":61632,
			"type":"SCALAR"
		},
		{
			"bufferView":4,
			"componentType":5126,
			"count":3968,
			"max":[
				-0.6828765273094177,
				0.8501200079917908,
				0.180508092045784
			],
			"min":[
				-0.7390689253807068,
				0.7767653465270996,
				-0.17251989245414734
			],
			"type":"VEC3"
		},
		{
			"bufferView":5,
			"componentType":5126,
			"count":3968,
			"type":"VEC2"
		},
		{
			"bufferView":6,
			"componentType":5126,
			"count":3968,
			"type":"VEC3"
		},
		{
			"bufferView":7,
			"componentType":5123,
			"count":5760,
			"type":"SCALAR"
		},
		{
			"bufferView":8,
			"componentType":5126,
			"count":9,
			"max":[
				0.3333333333333333
			],
			"min":[
				0
			],
			"type":"SCALAR"
		},
		{
			"bufferView":9,
			"componentType":5126,
			"count":9,
			"type":"VEC3"
		},
		{
			"bufferView":10,
			"componentType":5126,
			"count":9,
			"type":"VEC4"
		},
		{
			"bufferView":11,
			"componentType":5126,
			"count":9,
			"type":"VEC3"
		}
	],
	"bufferViews":[
		{
			"buffer":0,
			"byteLength":143556,
			"byteOffset":0,
			"target":34962
		},
		{
			"buffer":0,
			"byteLength":95704,
			"byteOffset":143556,
			"target":34962
		},
		{
			"buffer":0,
			"byteLength":143556,
			"byteOffset":239260,
			"target":34962
		},
		{
			"buffer":0,
			"byteLength":123264,
			"byteOffset":382816,
			"target":34963
		},
		{
			"buffer":0,
			"byteLength":47616,
			"byteOffset":506080,
			"target":34962
		},
		{
			"buffer":0,
			"byteLength":31744,
			"byteOffset":553696,
			"target":34962
		},
		{
			"buffer":0,
			"byteLength":47616,
			"byteOffset":585440,
			"target":34962
		},
		{
			"buffer":0,
			"byteLength":11520,
			"byteOffset":633056,
			"target":34963
		},
		{
			"buffer":0,
			"byteLength":36,
			"byteOffset":644576
		},
		{
			"buffer":0,
			"byteLength":108,
			"byteOffset":644612
		},
		{
			"buffer":0,
			"byteLength":144,
			"byteOffset":644720
		},
		{
			"buffer":0,
			"byteLength":108,
			"byteOffset":644864
		}
	],
	"buffers":[
		{
			"byteLength":644972,
			"uri":"data:application/octet-stream;base64,"
		}
	]
}
