{
	"asset":{
		"generator":"Khronos glTF Blender I/O v3.5.30",
		"version":"2.0"
	},
	"extensionsUsed":[
		"KHR_materials_specular",
		"KHR_materials_ior"
	],
	"scene":0,
	"scenes":[
		{
			"name":"Scene",
			"nodes":[
				0
			]
		}
	],
	"nodes":[
		{
			"mesh":0,
			"name":"Horse",
			"rotation":[
				0.04309619590640068,
				0.5916885733604431,
				-0.27774766087532043,
				0.7555816173553467
			],
			"scale":[
				0.31784379482269287,
				1.080068588256836,
				0.70965576171875
			]
		}
	],
	"animations":[
		{
			"channels":[
				{
					"sampler":0,
					"target":{
						"node":0,
						"path":"translation"
					}
				},
				{
					"sampler":1,
					"target":{
						"node":0,
						"path":"rotation"
					}
				},
				{
					"sampler":2,
					"target":{
						"node":0,
						"path":"scale"
					}
				}
			],
			"name":"Horse",
			"samplers":[
				{
					"input":8,
					"interpolation":"LINEAR",
					"output":9
				},
				{
					"input":8,
					"interpolation":"LINEAR",
					"output":10
				},
				{
					"input":8,
					"interpolation":"LINEAR",
					"output":11
				}
			]
		}
	],
	"materials":[
		{
			"doubleSided":true,
			"extensions":{
				"KHR_materials_specular":{
					"specularColorFactor":[
						1.580905123408908,
						1.580905123408908,
						1.580905123408908
					]
				},
				"KHR_materials_ior":{
					"ior":1.4500000476837158
				}
			},
			"name":"eye",
			"pbrMetallicRoughness":{
				"baseColorFactor":[
					0.00103139434941113,
					0.00103139434941113,
					0.00103139434941113,
					1
				],
				"metallicFactor":0,
				"roughnessFactor":0.1746031641960144
			}
		},
		{
			"doubleSided":true,
			"extensions":{
				"KHR_materials_specular":{
					"specularColorFactor":[
						0.6467338434498618,
						0.6467338434498618,
						0.6467338434498618
					]
				},
				"KHR_materials_ior":{
					"ior":1.4500000476837158
				}
			},
			"name":"Material.009",
			"pbrMetallicRoughness":{
				"baseColorTexture":{
					"index":0
				},
				"metallicFactor":0,
				"roughnessFactor":0.4954545497894287
			}
		}
	],
	"meshes":[
		{
			"name":"Sphere",
			"primitives":[
				{
					"attributes":{
						"POSITION":0,
						"TEXCOORD_0":1,
						"NORMAL":2
					},
					"indices":3,
					"material":0
				},
				{
					"attributes":{
						"POSITION":4,
						"TEXCOORD_0":5,
						"NORMAL":6
					},
					"indices":7,
					"material":1
				}
			]
		}
	],
	"textures":[
		{
			"sampler":0,
			"source":0
		}
	],
	"images":[
		{
			"bufferView":8,
			"mimeType":"image/png",
			"name":"Untitled"
		}
	],
	"accessors":[
		{
			"bufferView":0,
			"componentType":5126,
			"count":3968,
			"max":[
				-0.9892425537109375,
				0.4674752354621887,
				-1.1880731582641602
			],
			"min":[
				-1.5945085287094116,
				0.3595370352268219,
				-1.3260166645050049
			],
			"type":"VEC3"
		},
		{
			"bufferView":1,
			"componentType":5126,
			"count":3968,
			"type":"VEC2"
		},
		{
			"bufferView":2,
			"componentType":5126,
			"count":3968,
			"type":"VEC3"
		},
		{
			"bufferView":3,
			"componentType":5123,
			"count":5760,
			"type":"SCALAR"
		},
		{
			"bufferView":4,
			"componentType":5126,
			"count":16193,
			"max":[
				1.113917350769043,
				0.7744778394699097,
				0.7589201927185059
			],
			"min":[
				-2.0291996002197266,
				-0.46574780344963074,
				-1.4379868507385254
			],
			"type":"VEC3"
		},
		{
			"bufferView":5,
			"componentType":5126,
			"count":16193,
			"type":"VEC2"
		},
		{
			"bufferView":6,
			"componentType":5126,
			"count":16193,
			"type":"VEC3"
		},
		{
			"bufferView":7,
			"componentType":5123,
			"count":83136,
			"type":"SCALAR"
		},
		{
			"bufferView":9,
			"componentType":5126,
			"count":9,
			"max":[
				0.3333333333333333
			],
			"min":[
				0
			],
			"type":"SCALAR"
		},
		{
			"bufferView":10,
			"componentType":5126,
			"count":9,
			"type":"VEC3"
		},
		{
			"bufferView":11,
			"componentType":5126,
			"count":9,
			"type":"VEC4"
		},
		{
			"bufferView":12,
			"componentType":5126,
			"count":9,
			"type":"VEC3"
		}
	],
	"bufferViews":[
		{
			"buffer":0,
			"byteLength":47616,
			"byteOffset":0,
			"target":34962
		},
		{
			"buffer":0,
			"byteLength":31744,
			"byteOffset":47616,
			"target":34962
		},
		{
			"buffer":0,
			"byteLength":47616,
			"byteOffset":79360,
			"target":34962
		},
		{
			"buffer":0,
			"byteLength":11520,
			"byteOffset":126976,
			"target":34963
		},
		{
			"buffer":0,
			"byteLength":194316,
			"byteOffset":138496,
			"target":34962
		},
		{
			"buffer":0,
			"byteLength":129544,
			"byteOffset":332812,
			"target":34962
		},
		{
			"buffer":0,
			"byteLength":194316,
			"byteOffset":462356,
			"target":34962
		},
		{
			"buffer":0,
			"byteLength":166272,
			"byteOffset":656672,
			"target":34963
		},
		{
			"buffer":0,
			"byteLength":20568,
			"byteOffset":822944
		},
		{
			"buffer":0,
			"byteLength":36,
			"byteOffset":843512
		},
		{
			"buffer":0,
			"byteLength":108,
			"byteOffset":843548
		},
		{
			"buffer":0,
			"byteLength":144,
			"byteOffset":843656
		},
		{
			"buffer":0,
			"byteLength":108,
			"byteOffset":843800
		}
	],
	"samplers":[
		{
			"magFilter":9729,
			"minFilter":9987
		}
	],
	"buffers":[
		{
			"byteLength":843908,
			"uri":"data:application/octet-stream;base64,"
		}
	]
}
